<svg xmlns="http://www.w3.org/2000/svg" viewBox="0 0 500 400" fill="currentColor" role="img" aria-label="Udupi temple gopuram watermark">
  <rect x="18" y="372" width="464" height="22" rx="3"></rect>
  <rect x="8" y="384" width="484" height="14" rx="2" opacity=".55"></rect>
  <rect x="45" y="364" width="410" height="10" rx="1" opacity=".42"></rect>
  <rect x="60" y="356" width="380" height="10" rx="1" opacity=".3"></rect>
  <rect x="38" y="290" width="18" height="68" rx="2" opacity=".4"></rect>
  <rect x="444" y="290" width="18" height="68" rx="2" opacity=".4"></rect>
  <ellipse cx="47" cy="290" rx="14" ry="5.5" opacity=".35"></ellipse>
  <ellipse cx="453" cy="290" rx="14" ry="5.5" opacity=".35"></ellipse>
  <path d="M28 290 L47 268 L66 290Z" opacity=".3"></path>
  <path d="M434 290 L453 268 L472 290Z" opacity=".3"></path>
  <rect x="74" y="246" width="18" height="110" rx="2"></rect>
  <rect x="120" y="246" width="18" height="110" rx="2"></rect>
  <rect x="172" y="252" width="14" height="104" rx="2"></rect>
  <rect x="314" y="252" width="14" height="104" rx="2"></rect>
  <rect x="362" y="246" width="18" height="110" rx="2"></rect>
  <rect x="408" y="246" width="18" height="110" rx="2"></rect>
  <ellipse cx="83" cy="246" rx="16" ry="6.5"></ellipse>
  <ellipse cx="129" cy="246" rx="16" ry="6.5"></ellipse>
  <ellipse cx="179" cy="252" rx="13" ry="5.5"></ellipse>
  <ellipse cx="321" cy="252" rx="13" ry="5.5"></ellipse>
  <ellipse cx="371" cy="246" rx="16" ry="6.5"></ellipse>
  <ellipse cx="417" cy="246" rx="16" ry="6.5"></ellipse>
  <rect x="58" y="228" width="384" height="20" rx="2"></rect>
  <rect x="62" y="212" width="376" height="14" rx="2" opacity=".62"></rect>
  <circle cx="116" cy="219" r="5" opacity=".42"></circle>
  <circle cx="158" cy="219" r="5" opacity=".42"></circle>
  <circle cx="200" cy="219" r="5" opacity=".42"></circle>
  <circle cx="242" cy="219" r="5" opacity=".42"></circle>
  <circle cx="250" cy="219" r="5.5" opacity=".55"></circle>
  <circle cx="258" cy="219" r="5" opacity=".42"></circle>
  <circle cx="300" cy="219" r="5" opacity=".42"></circle>
  <circle cx="342" cy="219" r="5" opacity=".42"></circle>
  <circle cx="384" cy="219" r="5" opacity=".42"></circle>
  <rect x="192" y="260" width="12" height="96" rx="2"></rect>
  <rect x="296" y="260" width="12" height="96" rx="2"></rect>
  <path d="M204 260 Q250 214 296 260" stroke="currentColor" stroke-width="6.5" fill="none" stroke-linecap="round"></path>
  <polygon points="250,188 262,210 238,210"></polygon>
  <ellipse cx="195" cy="249" rx="6" ry="8" opacity=".32"></ellipse>
  <ellipse cx="305" cy="249" rx="6" ry="8" opacity=".32"></ellipse>
  <path d="M82 212 L250 130 L418 212Z" opacity=".48"></path>
  <line x1="250" y1="130" x2="148" y2="212" stroke="currentColor" stroke-width="1.4" opacity=".38"></line>
  <line x1="250" y1="130" x2="352" y2="212" stroke="currentColor" stroke-width="1.4" opacity=".38"></line>
  <line x1="250" y1="148" x2="192" y2="212" stroke="currentColor" stroke-width="1" opacity=".25"></line>
  <line x1="250" y1="148" x2="308" y2="212" stroke="currentColor" stroke-width="1" opacity=".25"></line>
  <path d="M120 152 L250 80 L380 152Z" opacity=".44"></path>
  <line x1="250" y1="80" x2="176" y2="152" stroke="currentColor" stroke-width="1.2" opacity=".3"></line>
  <line x1="250" y1="80" x2="324" y2="152" stroke="currentColor" stroke-width="1.2" opacity=".3"></line>
  <path d="M158 104 L250 48 L342 104Z" opacity=".40"></path>
  <rect x="244" y="38" width="12" height="16" rx="2"></rect>
  <ellipse cx="250" cy="36" rx="13" ry="8"></ellipse>
  <ellipse cx="250" cy="25" rx="9" ry="6.5"></ellipse>
  <rect x="246" y="16" width="8" height="13"></rect>
  <ellipse cx="250" cy="14" rx="6.5" ry="5"></ellipse>
  <line x1="250" y1="9" x2="250" y2="2" stroke="currentColor" stroke-width="2.2"></line>
  <polygon points="250,2 266,7 250,12" opacity=".48"></polygon>
</svg>